<svg xmlns="http://www.w3.org/2000/svg" viewBox="-9.83228 -1.85155 24.77 17.2">
  <path d="M 0 0 H 14.033 C 14.905 0.314 15.548 1.42 13.993 1.988 H 0.027 C -0.589 4.483 -4.746 4.019 -5.075 1.941 H -7.48 C -9.669 1.933 -9.294 -0.069 -7.48 0 H -5.12 C -4.402 -2.71 -0.529 -2.216 0.004 0.003 M -3.36 -0.381 C -4.739 0.481 -3.997 1.972 -3.717 2.146 C -2.204 2.942 -1.711 2.45 -0.997 1.613 C -0.702 -0.602 -2.296 -0.58 -3.09 -0.553 M -8.802 6.079 C -10.213 6.439 -9.957 7.569 -8.802 7.942 H 6.004 C 7.364 10.324 9.966 10.159 10.983 8.036 H 12.433 C 13.345 7.707 13.629 6.436 12.403 6.032 H 10.833 C 9.577 4.014 7.184 4.073 6.003 6.032 H -8.801 M 7.296 6.203 C 7.886 5.436 8.459 5.521 9.202 5.876 C 9.747 6.148 10.31 7.192 9.72 8.082 C 9.03 8.827 8.049 8.772 7.459 8.137 C 7.105 7.955 6.742 7.093 7.16 6.421 M -8.921 12.062 C -10.124 12.307 -10.147 13.495 -8.924 13.973 H -4.018 C -2.93 16.043 -0.044 15.549 0.561 13.985 H 12.421 C 13.38 13.968 13.822 12.375 12.517 11.992 H 0.55 C -0.582 9.957 -2.885 9.837 -4.008 12.009 H -8.878 M -2.815 12.006 C -2.273 11.158 -1.23 11.376 -0.686 12.048 C -0.056 12.915 -0.382 14.045 -1.552 14.289 C -2.689 14.359 -3.505 13.02 -2.957 12.239" fill="#000000"/>
</svg>